# xmcd
#
# Track frame offsets: 
#        150
#        17214
#        36286
#        54906
#        86080
#        102404
#        118804
#        133840
#        158818
#        177145
#        208121
#        241185
#        264930
#        280018
#        294418
#        320571
#        333791
#
# Disc length: 4761 seconds
#
# Revision: 0
# Processed by: cddbd v1.5.2PL0 Copyright (c) Steve Scherf et al.
# Submitted via: ExactAudioCopy v1.3
#
DISCID=f0129711
DTITLE=Various Artist - Akella Presents - vol. 178 - Blues Instrument
DTITLE=al  CD1
DYEAR=2019
DGENRE=Blues
TTITLE0=Blues Company - Balsha's Dream
TTITLE1=Blue Attitude - J.A.B.J
TTITLE2=Smoky Greenwell - Boogie Twist
TTITLE3=Tota Blues - The Creeper Returns
TTITLE4=Billy Stapleton - Mack Attack
TTITLE5=Leo Maier - Blues For Mr. Jody Williams
TTITLE6=Melvin Taylor - In The Night
TTITLE7=Jerry Forney - Spanish Love
TTITLE8=Dickie Peltier - Slow Blues In B
TTITLE9=Andy Watts - Riviera Paradise
TTITLE10=Tom Vieth - Dreaming The Blues
TTITLE11=Kenny Beedy Eyes Smith - Moment Of Silence
TTITLE12=Tim Brooks - Collard Blues
TTITLE13=Blues Cousins - Sleepless Night
TTITLE14=Hammer Smith Band - Past The Test Of Time
TTITLE15=Johnny And The Headhunters - Collins Mambo
TTITLE16=Jimmy Carpenter - Jimmy Plays The Blues
EXTD=
EXTT0=
EXTT1=
EXTT2=
EXTT3=
EXTT4=
EXTT5=
EXTT6=
EXTT7=
EXTT8=
EXTT9=
EXTT10=
EXTT11=
EXTT12=
EXTT13=
EXTT14=
EXTT15=
EXTT16=
PLAYORDER=
